<svg width="2410" height="804" viewBox="0 0 2410 804" fill="none" xmlns="http://www.w3.org/2000/svg">
<rect x="34.5" y="34.5" width="2341" height="735" rx="64.5" fill="white"/>
<path d="M189 239.5C193.667 239.5 198.5 240.833 203.5 243.5C208.833 245.833 212.833 249 215.5 253L337 440L312 439L436.5 253C442.833 244 451 239.5 461 239.5C469 239.5 476.167 242.333 482.5 248C488.833 253.667 492 261 492 270V559.5C492 568.167 489.167 575.5 483.5 581.5C477.833 587.167 470.333 590 461 590C451.667 590 444 587.167 438 581.5C432.333 575.5 429.5 568.167 429.5 559.5V324L449 328.5L347 484C344 487.667 340.167 490.833 335.5 493.5C331.167 496.167 326.667 497.333 322 497C317.667 497.333 313.167 496.167 308.5 493.5C304.167 490.833 300.5 487.667 297.5 484L202 333L215 306.5V559.5C215 568.167 212.333 575.5 207 581.5C201.667 587.167 194.667 590 186 590C177.667 590 170.833 587.167 165.5 581.5C160.167 575.5 157.5 568.167 157.5 559.5V270C157.5 261.667 160.5 254.5 166.5 248.5C172.833 242.5 180.333 239.5 189 239.5ZM688.168 595C659.835 595 635.168 589.167 614.168 577.5C593.501 565.5 577.501 549.333 566.168 529C555.168 508.667 549.668 485.667 549.668 460C549.668 430 555.668 404.5 567.668 383.5C580.001 362.167 596.001 345.833 615.668 334.5C635.335 323.167 656.168 317.5 678.168 317.5C695.168 317.5 711.168 321 726.168 328C741.501 335 755.001 344.667 766.668 357C778.335 369 787.501 383 794.168 399C801.168 415 804.668 432 804.668 450C804.335 458 801.168 464.5 795.168 469.5C789.168 474.5 782.168 477 774.168 477H583.168L568.168 427H751.668L740.668 437V423.5C740.001 413.833 736.501 405.167 730.168 397.5C724.168 389.833 716.501 383.833 707.168 379.5C698.168 374.833 688.501 372.5 678.168 372.5C668.168 372.5 658.835 373.833 650.168 376.5C641.501 379.167 634.001 383.667 627.668 390C621.335 396.333 616.335 404.833 612.668 415.5C609.001 426.167 607.168 439.667 607.168 456C607.168 474 610.835 489.333 618.168 502C625.835 514.333 635.501 523.833 647.168 530.5C659.168 536.833 671.835 540 685.168 540C697.501 540 707.335 539 714.668 537C722.001 535 727.835 532.667 732.168 530C736.835 527 741.001 524.5 744.668 522.5C750.668 519.5 756.335 518 761.668 518C769.001 518 775.001 520.5 779.668 525.5C784.668 530.5 787.168 536.333 787.168 543C787.168 552 782.501 560.167 773.168 567.5C764.501 574.833 752.335 581.333 736.668 587C721.001 592.333 704.835 595 688.168 595ZM995.59 317.5C1018.92 317.5 1039.76 323.5 1058.09 335.5C1076.76 347.167 1091.42 363.333 1102.09 384C1113.09 404.667 1118.59 428.667 1118.59 456C1118.59 483.333 1113.09 507.5 1102.09 528.5C1091.42 549.167 1076.92 565.5 1058.59 577.5C1040.59 589.167 1020.26 595 997.59 595C984.257 595 971.757 592.833 960.09 588.5C948.423 584.167 938.09 578.667 929.09 572C920.423 565.333 913.59 558.667 908.59 552C903.923 545 901.59 539.167 901.59 534.5L917.09 528V564.5C917.09 573.167 914.257 580.5 908.59 586.5C902.923 592.167 895.757 595 887.09 595C878.423 595 871.257 592.167 865.59 586.5C859.923 580.833 857.09 573.5 857.09 564.5V250.5C857.09 241.833 859.923 234.667 865.59 229C871.257 223 878.423 220 887.09 220C895.757 220 902.923 223 908.59 229C914.257 234.667 917.09 241.833 917.09 250.5V377.5L908.59 373C908.59 368.667 910.923 363.5 915.59 357.5C920.257 351.167 926.59 345 934.59 339C942.59 332.667 951.757 327.5 962.09 323.5C972.757 319.5 983.923 317.5 995.59 317.5ZM988.09 372.5C973.423 372.5 960.59 376.167 949.59 383.5C938.59 390.833 929.923 400.833 923.59 413.5C917.59 425.833 914.59 440 914.59 456C914.59 471.667 917.59 486 923.59 499C929.923 511.667 938.59 521.667 949.59 529C960.59 536.333 973.423 540 988.09 540C1002.76 540 1015.42 536.333 1026.09 529C1037.09 521.667 1045.59 511.667 1051.59 499C1057.92 486 1061.09 471.667 1061.09 456C1061.09 440 1057.92 425.833 1051.59 413.5C1045.59 400.833 1037.09 390.833 1026.09 383.5C1015.42 376.167 1002.76 372.5 988.09 372.5ZM1270.63 590C1261.3 590 1253.63 587.167 1247.63 581.5C1241.63 575.5 1238.63 568.167 1238.63 559.5V269.5H1303.63V559.5C1303.63 568.167 1300.46 575.5 1294.13 581.5C1288.13 587.167 1280.3 590 1270.63 590ZM1160.13 297.5C1151.46 297.5 1144.13 294.833 1138.13 289.5C1132.46 284.167 1129.63 277.167 1129.63 268.5C1129.63 259.833 1132.46 253 1138.13 248C1144.13 242.667 1151.46 240 1160.13 240H1382.13C1390.8 240 1397.96 242.667 1403.63 248C1409.63 253.333 1412.63 260.333 1412.63 269C1412.63 277.667 1409.63 284.667 1403.63 290C1397.96 295 1390.8 297.5 1382.13 297.5H1160.13ZM1659.56 456.5C1659.56 483.833 1653.39 508 1641.06 529C1629.06 549.667 1612.73 565.833 1592.06 577.5C1571.73 589.167 1548.89 595 1523.56 595C1498.23 595 1475.23 589.167 1454.56 577.5C1434.23 565.833 1417.89 549.667 1405.56 529C1393.56 508 1387.56 483.833 1387.56 456.5C1387.56 429.167 1393.56 405.167 1405.56 384.5C1417.89 363.5 1434.23 347.167 1454.56 335.5C1475.23 323.5 1498.23 317.5 1523.56 317.5C1548.89 317.5 1571.73 323.5 1592.06 335.5C1612.73 347.167 1629.06 363.5 1641.06 384.5C1653.39 405.167 1659.56 429.167 1659.56 456.5ZM1599.56 456.5C1599.56 439.5 1596.06 424.833 1589.06 412.5C1582.39 399.833 1573.23 390 1561.56 383C1550.23 376 1537.56 372.5 1523.56 372.5C1509.56 372.5 1496.73 376 1485.06 383C1473.73 390 1464.56 399.833 1457.56 412.5C1450.89 424.833 1447.56 439.5 1447.56 456.5C1447.56 473.167 1450.89 487.833 1457.56 500.5C1464.56 512.833 1473.73 522.5 1485.06 529.5C1496.73 536.5 1509.56 540 1523.56 540C1537.56 540 1550.23 536.5 1561.56 529.5C1573.23 522.5 1582.39 512.833 1589.06 500.5C1596.06 487.833 1599.56 473.167 1599.56 456.5ZM1971.57 456.5C1971.57 483.833 1965.4 508 1953.07 529C1941.07 549.667 1924.74 565.833 1904.07 577.5C1883.74 589.167 1860.9 595 1835.57 595C1810.24 595 1787.24 589.167 1766.57 577.5C1746.24 565.833 1729.9 549.667 1717.57 529C1705.57 508 1699.57 483.833 1699.57 456.5C1699.57 429.167 1705.57 405.167 1717.57 384.5C1729.9 363.5 1746.24 347.167 1766.57 335.5C1787.24 323.5 1810.24 317.5 1835.57 317.5C1860.9 317.5 1883.74 323.5 1904.07 335.5C1924.74 347.167 1941.07 363.5 1953.07 384.5C1965.4 405.167 1971.57 429.167 1971.57 456.5ZM1911.57 456.5C1911.57 439.5 1908.07 424.833 1901.07 412.5C1894.4 399.833 1885.24 390 1873.57 383C1862.24 376 1849.57 372.5 1835.57 372.5C1821.57 372.5 1808.74 376 1797.07 383C1785.74 390 1776.57 399.833 1769.57 412.5C1762.9 424.833 1759.57 439.5 1759.57 456.5C1759.57 473.167 1762.9 487.833 1769.57 500.5C1776.57 512.833 1785.74 522.5 1797.07 529.5C1808.74 536.5 1821.57 540 1835.57 540C1849.57 540 1862.24 536.5 1873.57 529.5C1885.24 522.5 1894.4 512.833 1901.07 500.5C1908.07 487.833 1911.57 473.167 1911.57 456.5ZM2167.08 317.5C2191.75 317.5 2210.42 322.667 2223.08 333C2236.08 343.333 2244.92 357.167 2249.58 374.5C2254.58 391.5 2257.08 410.5 2257.08 431.5V559.5C2257.08 568.167 2254.25 575.5 2248.58 581.5C2242.92 587.167 2235.75 590 2227.08 590C2218.42 590 2211.25 587.167 2205.58 581.5C2199.92 575.5 2197.08 568.167 2197.08 559.5V431.5C2197.08 420.5 2195.58 410.667 2192.58 402C2189.92 393 2184.92 385.833 2177.58 380.5C2170.25 375.167 2159.75 372.5 2146.08 372.5C2132.75 372.5 2121.42 375.167 2112.08 380.5C2103.08 385.833 2096.08 393 2091.08 402C2086.42 410.667 2084.08 420.5 2084.08 431.5V559.5C2084.08 568.167 2081.25 575.5 2075.58 581.5C2069.92 587.167 2062.75 590 2054.08 590C2045.42 590 2038.25 587.167 2032.58 581.5C2026.92 575.5 2024.08 568.167 2024.08 559.5V353C2024.08 344.333 2026.92 337.167 2032.58 331.5C2038.25 325.5 2045.42 322.5 2054.08 322.5C2062.75 322.5 2069.92 325.5 2075.58 331.5C2081.25 337.167 2084.08 344.333 2084.08 353V374.5L2076.58 373C2079.58 367.333 2083.92 361.333 2089.58 355C2095.25 348.333 2101.92 342.167 2109.58 336.5C2117.25 330.833 2125.92 326.333 2135.58 323C2145.25 319.333 2155.75 317.5 2167.08 317.5Z" fill="#1ED760"/>
<rect x="34.5" y="34.5" width="2341" height="735" rx="64.5" stroke="#00DC64" stroke-width="69" stroke-linejoin="round"/>
</svg>
