<svg width="2101" height="375" viewBox="0 0 2101 375" fill="none" xmlns="http://www.w3.org/2000/svg">
<path d="M32 19.5C36.6667 19.5 41.5 20.8333 46.5 23.5C51.8333 25.8333 55.8333 29 58.5 33L180 220L155 219L279.5 33C285.833 24 294 19.5 304 19.5C312 19.5 319.167 22.3333 325.5 28C331.833 33.6666 335 41 335 50V339.5C335 348.167 332.167 355.5 326.5 361.5C320.833 367.167 313.333 370 304 370C294.667 370 287 367.167 281 361.5C275.333 355.5 272.5 348.167 272.5 339.5V104L292 108.5L190 264C187 267.667 183.167 270.833 178.5 273.5C174.167 276.167 169.667 277.333 165 277C160.667 277.333 156.167 276.167 151.5 273.5C147.167 270.833 143.5 267.667 140.5 264L45 113L58 86.5V339.5C58 348.167 55.3333 355.5 50 361.5C44.6667 367.167 37.6667 370 29 370C20.6667 370 13.8333 367.167 8.5 361.5C3.16667 355.5 0.500001 348.167 0.500001 339.5V50C0.500001 41.6667 3.5 34.5 9.5 28.5C15.8333 22.5 23.3333 19.5 32 19.5ZM531.168 375C502.835 375 478.168 369.167 457.168 357.5C436.501 345.5 420.501 329.333 409.168 309C398.168 288.667 392.668 265.667 392.668 240C392.668 210 398.668 184.5 410.668 163.5C423.001 142.167 439.001 125.833 458.668 114.5C478.335 103.167 499.168 97.5 521.168 97.5C538.168 97.5 554.168 101 569.168 108C584.501 115 598.001 124.667 609.668 137C621.335 149 630.501 163 637.168 179C644.168 195 647.668 212 647.668 230C647.335 238 644.168 244.5 638.168 249.5C632.168 254.5 625.168 257 617.168 257H426.168L411.168 207H594.668L583.668 217V203.5C583.001 193.833 579.501 185.167 573.168 177.5C567.168 169.833 559.501 163.833 550.168 159.5C541.168 154.833 531.501 152.5 521.168 152.5C511.168 152.5 501.835 153.833 493.168 156.5C484.501 159.167 477.001 163.667 470.668 170C464.335 176.333 459.335 184.833 455.668 195.5C452.001 206.167 450.168 219.667 450.168 236C450.168 254 453.835 269.333 461.168 282C468.835 294.333 478.501 303.833 490.168 310.5C502.168 316.833 514.835 320 528.168 320C540.501 320 550.335 319 557.668 317C565.001 315 570.835 312.667 575.168 310C579.835 307 584.001 304.5 587.668 302.5C593.668 299.5 599.335 298 604.668 298C612.001 298 618.001 300.5 622.668 305.5C627.668 310.5 630.168 316.333 630.168 323C630.168 332 625.501 340.167 616.168 347.5C607.501 354.833 595.335 361.333 579.668 367C564.001 372.333 547.835 375 531.168 375ZM838.59 97.5C861.923 97.5 882.757 103.5 901.09 115.5C919.757 127.167 934.423 143.333 945.09 164C956.09 184.667 961.59 208.667 961.59 236C961.59 263.333 956.09 287.5 945.09 308.5C934.423 329.167 919.923 345.5 901.59 357.5C883.59 369.167 863.257 375 840.59 375C827.257 375 814.757 372.833 803.09 368.5C791.423 364.167 781.09 358.667 772.09 352C763.423 345.333 756.59 338.667 751.59 332C746.923 325 744.59 319.167 744.59 314.5L760.09 308V344.5C760.09 353.167 757.257 360.5 751.59 366.5C745.923 372.167 738.757 375 730.09 375C721.423 375 714.257 372.167 708.59 366.5C702.923 360.833 700.09 353.5 700.09 344.5V30.5C700.09 21.8333 702.923 14.6666 708.59 8.99997C714.257 2.99999 721.423 -4.76837e-06 730.09 -4.76837e-06C738.757 -4.76837e-06 745.923 2.99999 751.59 8.99997C757.257 14.6666 760.09 21.8333 760.09 30.5V157.5L751.59 153C751.59 148.667 753.923 143.5 758.59 137.5C763.257 131.167 769.59 125 777.59 119C785.59 112.667 794.757 107.5 805.09 103.5C815.757 99.5 826.923 97.5 838.59 97.5ZM831.09 152.5C816.423 152.5 803.59 156.167 792.59 163.5C781.59 170.833 772.923 180.833 766.59 193.5C760.59 205.833 757.59 220 757.59 236C757.59 251.667 760.59 266 766.59 279C772.923 291.667 781.59 301.667 792.59 309C803.59 316.333 816.423 320 831.09 320C845.757 320 858.423 316.333 869.09 309C880.09 301.667 888.59 291.667 894.59 279C900.923 266 904.09 251.667 904.09 236C904.09 220 900.923 205.833 894.59 193.5C888.59 180.833 880.09 170.833 869.09 163.5C858.423 156.167 845.757 152.5 831.09 152.5ZM1113.63 370C1104.3 370 1096.63 367.167 1090.63 361.5C1084.63 355.5 1081.63 348.167 1081.63 339.5V49.5H1146.63V339.5C1146.63 348.167 1143.46 355.5 1137.13 361.5C1131.13 367.167 1123.3 370 1113.63 370ZM1003.13 77.5C994.462 77.5 987.129 74.8333 981.129 69.5C975.462 64.1667 972.629 57.1667 972.629 48.5C972.629 39.8333 975.462 33 981.129 28C987.129 22.6666 994.462 20 1003.13 20H1225.13C1233.8 20 1240.96 22.6666 1246.63 28C1252.63 33.3333 1255.63 40.3333 1255.63 49C1255.63 57.6666 1252.63 64.6666 1246.63 70C1240.96 75 1233.8 77.5 1225.13 77.5H1003.13ZM1502.56 236.5C1502.56 263.833 1496.39 288 1484.06 309C1472.06 329.667 1455.73 345.833 1435.06 357.5C1414.73 369.167 1391.89 375 1366.56 375C1341.23 375 1318.23 369.167 1297.56 357.5C1277.23 345.833 1260.89 329.667 1248.56 309C1236.56 288 1230.56 263.833 1230.56 236.5C1230.56 209.167 1236.56 185.167 1248.56 164.5C1260.89 143.5 1277.23 127.167 1297.56 115.5C1318.23 103.5 1341.23 97.5 1366.56 97.5C1391.89 97.5 1414.73 103.5 1435.06 115.5C1455.73 127.167 1472.06 143.5 1484.06 164.5C1496.39 185.167 1502.56 209.167 1502.56 236.5ZM1442.56 236.5C1442.56 219.5 1439.06 204.833 1432.06 192.5C1425.39 179.833 1416.23 170 1404.56 163C1393.23 156 1380.56 152.5 1366.56 152.5C1352.56 152.5 1339.73 156 1328.06 163C1316.73 170 1307.56 179.833 1300.56 192.5C1293.89 204.833 1290.56 219.5 1290.56 236.5C1290.56 253.167 1293.89 267.833 1300.56 280.5C1307.56 292.833 1316.73 302.5 1328.06 309.5C1339.73 316.5 1352.56 320 1366.56 320C1380.56 320 1393.23 316.5 1404.56 309.5C1416.23 302.5 1425.39 292.833 1432.06 280.5C1439.06 267.833 1442.56 253.167 1442.56 236.5ZM1814.57 236.5C1814.57 263.833 1808.4 288 1796.07 309C1784.07 329.667 1767.74 345.833 1747.07 357.5C1726.74 369.167 1703.9 375 1678.57 375C1653.24 375 1630.24 369.167 1609.57 357.5C1589.24 345.833 1572.9 329.667 1560.57 309C1548.57 288 1542.57 263.833 1542.57 236.5C1542.57 209.167 1548.57 185.167 1560.57 164.5C1572.9 143.5 1589.24 127.167 1609.57 115.5C1630.24 103.5 1653.24 97.5 1678.57 97.5C1703.9 97.5 1726.74 103.5 1747.07 115.5C1767.74 127.167 1784.07 143.5 1796.07 164.5C1808.4 185.167 1814.57 209.167 1814.57 236.5ZM1754.57 236.5C1754.57 219.5 1751.07 204.833 1744.07 192.5C1737.4 179.833 1728.24 170 1716.57 163C1705.24 156 1692.57 152.5 1678.57 152.5C1664.57 152.5 1651.74 156 1640.07 163C1628.74 170 1619.57 179.833 1612.57 192.5C1605.9 204.833 1602.57 219.5 1602.57 236.5C1602.57 253.167 1605.9 267.833 1612.57 280.5C1619.57 292.833 1628.74 302.5 1640.07 309.5C1651.74 316.5 1664.57 320 1678.57 320C1692.57 320 1705.24 316.5 1716.57 309.5C1728.24 302.5 1737.4 292.833 1744.07 280.5C1751.07 267.833 1754.57 253.167 1754.57 236.5ZM2010.08 97.5C2034.75 97.5 2053.42 102.667 2066.08 113C2079.08 123.333 2087.92 137.167 2092.58 154.5C2097.58 171.5 2100.08 190.5 2100.08 211.5V339.5C2100.08 348.167 2097.25 355.5 2091.58 361.5C2085.92 367.167 2078.75 370 2070.08 370C2061.42 370 2054.25 367.167 2048.58 361.5C2042.92 355.5 2040.08 348.167 2040.08 339.5V211.5C2040.08 200.5 2038.58 190.667 2035.58 182C2032.92 173 2027.92 165.833 2020.58 160.5C2013.25 155.167 2002.75 152.5 1989.08 152.5C1975.75 152.5 1964.42 155.167 1955.08 160.5C1946.08 165.833 1939.08 173 1934.08 182C1929.42 190.667 1927.08 200.5 1927.08 211.5V339.5C1927.08 348.167 1924.25 355.5 1918.58 361.5C1912.92 367.167 1905.75 370 1897.08 370C1888.42 370 1881.25 367.167 1875.58 361.5C1869.92 355.5 1867.08 348.167 1867.08 339.5V133C1867.08 124.333 1869.92 117.167 1875.58 111.5C1881.25 105.5 1888.42 102.5 1897.08 102.5C1905.75 102.5 1912.92 105.5 1918.58 111.5C1924.25 117.167 1927.08 124.333 1927.08 133V154.5L1919.58 153C1922.58 147.333 1926.92 141.333 1932.58 135C1938.25 128.333 1944.92 122.167 1952.58 116.5C1960.25 110.833 1968.92 106.333 1978.58 103C1988.25 99.3333 1998.75 97.5 2010.08 97.5Z" fill="white"/>
</svg>
